<mxfile host="app.diagrams.net" modified="2024-06-28T17:58:18.128Z" agent="Mozilla/5.0 (Windows NT 10.0; Win64; x64) AppleWebKit/537.36 (KHTML, like Gecko) Chrome/126.0.0.0 Safari/537.36" etag="_hw0nCgfRP6sNeXrCtBo" version="24.6.4" type="device">
  <diagram name="PÃ¡gina-1" id="OOLhiQYaRzrUzU_-95qS">
    <mxGraphModel dx="2591" dy="2265" grid="1" gridSize="10" guides="1" tooltips="1" connect="1" arrows="1" fold="1" page="1" pageScale="1" pageWidth="827" pageHeight="1169" math="0" shadow="0">
      <root>
        <mxCell id="0" />
        <mxCell id="1" parent="0" />
        <mxCell id="5I94mgKOTIEArTd720f6-1" value="" style="whiteSpace=wrap;html=1;aspect=fixed;strokeColor=#FFCCCC;" parent="1" vertex="1">
          <mxGeometry x="180" y="-110" width="570" height="570" as="geometry" />
        </mxCell>
        <mxCell id="5I94mgKOTIEArTd720f6-21" value="LEFT" style="shape=step;perimeter=stepPerimeter;whiteSpace=wrap;html=1;fixedSize=1;fillColor=#008a00;strokeColor=#005700;rotation=-90;fontColor=#ffffff;" parent="1" vertex="1">
          <mxGeometry x="165" y="505" width="120" height="50" as="geometry" />
        </mxCell>
        <mxCell id="5I94mgKOTIEArTd720f6-26" value="" style="endArrow=none;dashed=1;html=1;dashPattern=1 3;strokeWidth=2;rounded=0;entryX=0.5;entryY=0;entryDx=0;entryDy=0;" parent="1" edge="1" target="5I94mgKOTIEArTd720f6-1">
          <mxGeometry width="50" height="50" relative="1" as="geometry">
            <mxPoint x="464.23" y="460" as="sourcePoint" />
            <mxPoint x="464" y="-100" as="targetPoint" />
          </mxGeometry>
        </mxCell>
        <mxCell id="5I94mgKOTIEArTd720f6-27" value="CENTER" style="edgeLabel;html=1;align=center;verticalAlign=middle;resizable=0;points=[];" parent="5I94mgKOTIEArTd720f6-26" vertex="1" connectable="0">
          <mxGeometry x="0.0695" y="-3" relative="1" as="geometry">
            <mxPoint y="1" as="offset" />
          </mxGeometry>
        </mxCell>
        <mxCell id="xzbqYjdxPqonFfslXFNU-1" value="" style="endArrow=none;html=1;strokeWidth=2;rounded=0;" edge="1" parent="1">
          <mxGeometry width="50" height="50" relative="1" as="geometry">
            <mxPoint x="285" y="460" as="sourcePoint" />
            <mxPoint x="285" y="-110" as="targetPoint" />
          </mxGeometry>
        </mxCell>
        <mxCell id="xzbqYjdxPqonFfslXFNU-3" value="" style="endArrow=none;html=1;strokeWidth=2;rounded=0;" edge="1" parent="1">
          <mxGeometry width="50" height="50" relative="1" as="geometry">
            <mxPoint x="643.75" y="460" as="sourcePoint" />
            <mxPoint x="643.75" y="-105" as="targetPoint" />
          </mxGeometry>
        </mxCell>
        <mxCell id="xzbqYjdxPqonFfslXFNU-5" value="" style="endArrow=none;html=1;strokeWidth=2;rounded=0;" edge="1" parent="1">
          <mxGeometry width="50" height="50" relative="1" as="geometry">
            <mxPoint x="525" y="460" as="sourcePoint" />
            <mxPoint x="525" y="-110" as="targetPoint" />
          </mxGeometry>
        </mxCell>
        <mxCell id="xzbqYjdxPqonFfslXFNU-6" value="" style="endArrow=none;html=1;strokeWidth=2;rounded=0;" edge="1" parent="1">
          <mxGeometry width="50" height="50" relative="1" as="geometry">
            <mxPoint x="403.75" y="460" as="sourcePoint" />
            <mxPoint x="403.75" y="-110" as="targetPoint" />
          </mxGeometry>
        </mxCell>
        <mxCell id="xzbqYjdxPqonFfslXFNU-7" value="LEFT-MED" style="shape=step;perimeter=stepPerimeter;whiteSpace=wrap;html=1;fixedSize=1;fillColor=#008a00;strokeColor=#005700;rotation=-90;fontColor=#ffffff;" vertex="1" parent="1">
          <mxGeometry x="285" y="505" width="120" height="50" as="geometry" />
        </mxCell>
        <mxCell id="xzbqYjdxPqonFfslXFNU-8" value="CENTER" style="shape=step;perimeter=stepPerimeter;whiteSpace=wrap;html=1;fixedSize=1;rotation=-90;fillColor=#0050ef;fontColor=#ffffff;strokeColor=#001DBC;" vertex="1" parent="1">
          <mxGeometry x="405" y="505" width="120" height="50" as="geometry" />
        </mxCell>
        <mxCell id="xzbqYjdxPqonFfslXFNU-9" value="RIGHT-MED" style="shape=step;perimeter=stepPerimeter;whiteSpace=wrap;html=1;fixedSize=1;fillColor=#60a917;strokeColor=#2D7600;rotation=-90;fontColor=#ffffff;" vertex="1" parent="1">
          <mxGeometry x="525" y="505" width="120" height="50" as="geometry" />
        </mxCell>
        <mxCell id="xzbqYjdxPqonFfslXFNU-29" style="edgeStyle=orthogonalEdgeStyle;rounded=0;orthogonalLoop=1;jettySize=auto;html=1;entryX=0.5;entryY=0;entryDx=0;entryDy=0;curved=1;strokeColor=#FF9999;" edge="1" parent="1" source="xzbqYjdxPqonFfslXFNU-10" target="5I94mgKOTIEArTd720f6-21">
          <mxGeometry relative="1" as="geometry">
            <Array as="points">
              <mxPoint x="780" y="530" />
              <mxPoint x="780" y="670" />
              <mxPoint x="150" y="670" />
              <mxPoint x="150" y="530" />
            </Array>
          </mxGeometry>
        </mxCell>
        <mxCell id="xzbqYjdxPqonFfslXFNU-32" value="&lt;font style=&quot;font-size: 14px;&quot;&gt;PLAYED AUDIO SEQUENCE&lt;/font&gt;" style="edgeLabel;html=1;align=center;verticalAlign=middle;resizable=0;points=[];" vertex="1" connectable="0" parent="xzbqYjdxPqonFfslXFNU-29">
          <mxGeometry x="0.0114" y="-2" relative="1" as="geometry">
            <mxPoint as="offset" />
          </mxGeometry>
        </mxCell>
        <mxCell id="xzbqYjdxPqonFfslXFNU-10" value="RIGHT-MED" style="shape=step;perimeter=stepPerimeter;whiteSpace=wrap;html=1;fixedSize=1;fillColor=#60a917;strokeColor=#2D7600;rotation=-90;fontColor=#ffffff;" vertex="1" parent="1">
          <mxGeometry x="645" y="505" width="120" height="50" as="geometry" />
        </mxCell>
        <mxCell id="xzbqYjdxPqonFfslXFNU-25" style="edgeStyle=orthogonalEdgeStyle;rounded=0;orthogonalLoop=1;jettySize=auto;html=1;entryX=1;entryY=0.5;entryDx=0;entryDy=0;strokeColor=#FF6666;" edge="1" parent="1" source="xzbqYjdxPqonFfslXFNU-14" target="xzbqYjdxPqonFfslXFNU-23">
          <mxGeometry relative="1" as="geometry" />
        </mxCell>
        <mxCell id="xzbqYjdxPqonFfslXFNU-14" value="&lt;div&gt;&lt;br&gt;&lt;/div&gt;LEFT-MED" style="html=1;whiteSpace=wrap;shape=isoCube2;backgroundOutline=1;isoAngle=15;fillColor=#fa6800;fontColor=#000000;strokeColor=#C73500;" vertex="1" parent="1">
          <mxGeometry x="220" y="240" width="110" height="120" as="geometry" />
        </mxCell>
        <mxCell id="xzbqYjdxPqonFfslXFNU-15" value="RIGHT-MED" style="html=1;whiteSpace=wrap;shape=isoCube2;backgroundOutline=1;isoAngle=15;fillColor=#fa6800;fontColor=#000000;strokeColor=#C73500;" vertex="1" parent="1">
          <mxGeometry x="570" y="-80" width="170" height="190" as="geometry" />
        </mxCell>
        <mxCell id="xzbqYjdxPqonFfslXFNU-16" value="RIGHT" style="html=1;whiteSpace=wrap;shape=isoCube2;backgroundOutline=1;isoAngle=15;fillColor=#fa6800;fontColor=#000000;strokeColor=#C73500;" vertex="1" parent="1">
          <mxGeometry x="670" y="320" width="70" height="60" as="geometry" />
        </mxCell>
        <mxCell id="xzbqYjdxPqonFfslXFNU-22" style="edgeStyle=orthogonalEdgeStyle;rounded=0;orthogonalLoop=1;jettySize=auto;html=1;strokeColor=#FF6666;" edge="1" parent="1" source="xzbqYjdxPqonFfslXFNU-17" target="xzbqYjdxPqonFfslXFNU-15">
          <mxGeometry relative="1" as="geometry" />
        </mxCell>
        <mxCell id="xzbqYjdxPqonFfslXFNU-17" value="-- ALERT SOUND --&lt;br style=&quot;font-size: 14px;&quot;&gt;PANNING&amp;nbsp;&lt;span style=&quot;background-color: initial;&quot;&gt;0.5&lt;br&gt;SPEED 0.8&lt;/span&gt;" style="html=1;whiteSpace=wrap;container=1;recursiveResize=0;collapsible=0;fontSize=14;fillColor=#ffcccc;strokeColor=#36393d;" vertex="1" parent="1">
          <mxGeometry x="790" y="-25" width="240" height="80" as="geometry" />
        </mxCell>
        <mxCell id="xzbqYjdxPqonFfslXFNU-18" value="" style="triangle;html=1;whiteSpace=wrap;" vertex="1" parent="xzbqYjdxPqonFfslXFNU-17">
          <mxGeometry x="20" y="20" width="20" height="30" as="geometry" />
        </mxCell>
        <mxCell id="xzbqYjdxPqonFfslXFNU-21" value="" style="edgeStyle=orthogonalEdgeStyle;rounded=0;orthogonalLoop=1;jettySize=auto;html=1;strokeColor=#FF6666;" edge="1" parent="1" source="xzbqYjdxPqonFfslXFNU-19" target="xzbqYjdxPqonFfslXFNU-16">
          <mxGeometry relative="1" as="geometry" />
        </mxCell>
        <mxCell id="xzbqYjdxPqonFfslXFNU-19" value="-- ALERT SOUND --&lt;br style=&quot;font-size: 14px;&quot;&gt;PANNING 1&lt;div&gt;SPEED 0.2&lt;/div&gt;" style="html=1;whiteSpace=wrap;container=1;recursiveResize=0;collapsible=0;fontSize=14;fillColor=#ffcccc;strokeColor=#36393d;" vertex="1" parent="1">
          <mxGeometry x="790" y="312.5" width="230" height="75" as="geometry" />
        </mxCell>
        <mxCell id="xzbqYjdxPqonFfslXFNU-20" value="" style="triangle;html=1;whiteSpace=wrap;" vertex="1" parent="xzbqYjdxPqonFfslXFNU-19">
          <mxGeometry x="20" y="20" width="20" height="30" as="geometry" />
        </mxCell>
        <mxCell id="xzbqYjdxPqonFfslXFNU-23" value="-- ALERT SOUND --&lt;br style=&quot;font-size: 14px;&quot;&gt;PANNING -0.5&lt;br&gt;SPEED 0.4" style="html=1;whiteSpace=wrap;container=1;recursiveResize=0;collapsible=0;fontSize=14;fillColor=#ffcccc;strokeColor=#36393d;" vertex="1" parent="1">
          <mxGeometry x="-90" y="262.5" width="230" height="75" as="geometry" />
        </mxCell>
        <mxCell id="xzbqYjdxPqonFfslXFNU-24" value="" style="triangle;html=1;whiteSpace=wrap;" vertex="1" parent="xzbqYjdxPqonFfslXFNU-23">
          <mxGeometry x="20" y="20" width="20" height="30" as="geometry" />
        </mxCell>
      </root>
    </mxGraphModel>
  </diagram>
</mxfile>
